<?xml version="1.0" standalone="no"?>
<!DOCTYPE svg PUBLIC "-//W3C//DTD SVG 1.1//EN" "http://www.w3.org/Graphics/SVG/1.1/DTD/svg11.dtd" >
<svg xmlns="http://www.w3.org/2000/svg" xmlns:xlink="http://www.w3.org/1999/xlink" version="1.1">
<metadata>
Created by FontForge 20201107 at Sun Dec 22 04:45:59 1996
 By 
(c)1990 Emigre Graphics
</metadata>
<defs>
<font id="VariexRegular" horiz-adv-x="750" >
  <font-face 
    font-family="Variex"
    font-weight="400"
    font-stretch="normal"
    units-per-em="1000"
    panose-1="0 0 4 0 0 0 0 0 0 0"
    ascent="800"
    descent="-200"
    x-height="583"
    cap-height="833"
    bbox="-61 -242 1153 1089"
    underline-thickness="97"
    underline-position="-214"
    unicode-range="U+0020-F002"
  />
<missing-glyph horiz-adv-x="500" 
d="M63 0v778h375v-778h-375zM125 63h250v653h-250v-653z" />
    <glyph glyph-name=".notdef" horiz-adv-x="500" 
d="M63 0v778h375v-778h-375zM125 63h250v653h-250v-653z" />
    <glyph glyph-name="glyph1" horiz-adv-x="0" 
 />
    <glyph glyph-name="glyph2" horiz-adv-x="417" 
 />
    <glyph glyph-name="space" unicode=" " horiz-adv-x="417" 
 />
    <glyph glyph-name="exclam" unicode="!" horiz-adv-x="458" 
d="M308 208h-166v584h166v-584zM225 158q42 0 71 -29t29 -71q0 -41 -29 -70.5t-71 -29.5t-71 29.5t-29 70.5q0 42 29 71t71 29z" />
    <glyph glyph-name="quotedbl" unicode="&#x22;" 
d="M292 458h-167v334h167v-334zM625 458h-167v334h167v-334z" />
    <glyph glyph-name="numbersign" unicode="#" 
d="M42 583h91v209h150v-209h184v209h150v-209h91v-150h-91v-158h91v-150h-91v-208h-150v208h-184v-208h-150v208h-91v150h91v158h-91v150zM467 433h-184v-158h184v158z" />
    <glyph glyph-name="dollar" unicode="$" horiz-adv-x="792" 
d="M467 792v-159l108 50l67 -150l-264 -119l447 -186l-358 -156v-239h-167v167l-100 -44l-67 155l259 111l-434 181l342 155v234h167z" />
    <glyph glyph-name="percent" unicode="%" horiz-adv-x="792" 
d="M700 733l117 -116l-717 -717l-117 117zM250 725q61 0 101.5 -40.5t40.5 -101.5q0 -60 -40.5 -100.5t-101.5 -40.5t-101.5 40.5t-40.5 100.5q0 61 40.5 101.5t101.5 40.5zM583 217q61 0 101.5 -40.5t40.5 -101.5t-40.5 -101.5t-101.5 -40.5q-60 0 -100.5 40.5t-40.5 101.5
t40.5 101.5t100.5 40.5z" />
    <glyph glyph-name="ampersand" unicode="&#x26;" horiz-adv-x="833" 
d="M686 500v-125h125v-167h-136q-27 -101 -112 -167t-194 -66q-131 0 -223.5 93t-92.5 224v41l58 59l-58 58v42q0 131 92.5 223.5t223.5 92.5q133 0 225 -89l-116 -122q-28 27 -48 35q-23 10 -61 10q-57 0 -102 -42t-45 -86l122 -122l-122 -123q0 -44 44 -84q46 -43 103 -43
q61 0 105.5 44.5t44.5 105.5v208h167z" />
    <glyph glyph-name="quotesingle" unicode="'" horiz-adv-x="417" 
d="M292 458h-167v334h167v-334z" />
    <glyph glyph-name="parenleft" unicode="(" horiz-adv-x="500" 
d="M417 808v-166h-25q-60 0 -105 -42.5t-45 -99.5v-375q0 -61 44.5 -105.5t105.5 -44.5h25v-167h-25q-131 0 -224 93t-93 224v375q0 130 94 219t223 89h25z" />
    <glyph glyph-name="parenright" unicode=")" horiz-adv-x="500" 
d="M83 642v166h25q129 0 223 -89t94 -219v-375q0 -131 -93 -224t-224 -93h-25v167h25q61 0 105.5 44.5t44.5 105.5v375q0 57 -45 99.5t-105 42.5h-25z" />
    <glyph glyph-name="asterisk" unicode="*" horiz-adv-x="500" 
d="M33 525l89 50l-89 50l67 117l92 -53v103h133v-103l92 53l66 -117l-89 -50l89 -50l-66 -117l-92 53v-103h-133v103l-92 -53z" />
    <glyph glyph-name="plus" unicode="+" horiz-adv-x="583" 
d="M42 458h166v167h167v-167h167v-166h-167v-167h-167v167h-166v166z" />
    <glyph glyph-name="comma" unicode="," horiz-adv-x="458" 
d="M106 97l72 139q65 -33 103 -97t38 -139t-38 -139t-103 -97l-72 139q58 31 58 97t-58 97z" />
    <glyph glyph-name="hyphen" unicode="-" horiz-adv-x="583" 
d="M83 292v166h417v-166h-417z" />
    <glyph glyph-name="hyphen" unicode="&#x2010;" horiz-adv-x="583" 
d="M83 292v166h417v-166h-417z" />
    <glyph glyph-name="period" unicode="." horiz-adv-x="458" 
d="M175 158q42 0 71 -29t29 -71q0 -41 -29 -70.5t-71 -29.5t-71 29.5t-29 70.5q0 42 29 71t71 29z" />
    <glyph glyph-name="slash" unicode="/" horiz-adv-x="792" 
d="M700 733l117 -116l-717 -717l-117 117z" />
    <glyph glyph-name="zero" unicode="0" 
d="M58 292q0 131 93 223.5t224 92.5t224 -92.5t93 -223.5t-93 -224t-224 -93t-224 93t-93 224zM225 292q0 -61 44.5 -105.5t105.5 -44.5t105.5 44.5t44.5 105.5q0 60 -44.5 105t-105.5 45t-105.5 -45t-44.5 -105z" />
    <glyph glyph-name="one" unicode="1" horiz-adv-x="417" 
d="M125 583h167v-583h-167v583z" />
    <glyph glyph-name="two" unicode="2" horiz-adv-x="600" 
d="M125 642v166h25q131 0 224 -92.5t93 -223.5q0 -109 -86 -220l-81 -105h267v-167h-603l292 383q26 34 33 49q11 24 11 60q0 60 -44.5 105t-105.5 45h-25z" />
    <glyph glyph-name="three" unicode="3" horiz-adv-x="611" 
d="M83 417v166h528l-133 -233q89 -91 89 -225q0 -131 -93 -224t-224 -93t-225 89l117 122q28 -26 49 -35t59 -9q61 0 105.5 44.5t44.5 105.5q0 49 -22 83h-172l119 209h-242z" />
    <glyph glyph-name="four" unicode="4" horiz-adv-x="639" 
d="M367 622l144 -78l-203 -377h289v-334h-166v167h-395z" />
    <glyph glyph-name="five" unicode="5" horiz-adv-x="667" 
d="M542 792v-167h-209l-8 -19q95 0 183 -84q100 -96 100 -230q0 -131 -92.5 -224t-223.5 -93q-133 0 -225 89l116 122q28 -26 49.5 -35t59.5 -9q60 0 105 44.5t45 105.5q0 60 -45 105t-105 45h-200l125 350h325z" />
    <glyph glyph-name="six" unicode="6" 
d="M375 -25q-130 0 -223.5 93t-93.5 224q0 133 89 222l320 319l116 -116l-122 -123q101 -27 166 -111t65 -191q0 -131 -93 -224t-224 -93zM525 292q0 60 -44.5 105t-105.5 45t-105.5 -45t-44.5 -105q0 -61 44.5 -105.5t105.5 -44.5t105.5 44.5t44.5 105.5z" />
    <glyph glyph-name="seven" unicode="7" horiz-adv-x="708" 
d="M83 417v166h564l-425 -780l-144 78l291 536h-286z" />
    <glyph glyph-name="eight" unicode="8" 
d="M517 667q0 -47 -25 -81q89 -36 144.5 -116t55.5 -178q0 -131 -93 -224t-224 -93t-224 93t-93 224q0 98 56 178t144 116q-25 39 -25 81q0 60 40.5 100.5t101.5 40.5t101.5 -40.5t40.5 -100.5zM225 292q0 -61 44.5 -105.5t105.5 -44.5t105.5 44.5t44.5 105.5
q0 60 -44.5 105t-105.5 45t-105.5 -45t-44.5 -105z" />
    <glyph glyph-name="nine" unicode="9" 
d="M375 608q130 0 223.5 -92.5t93.5 -223.5q0 -134 -89 -223l-278 -277l-117 116l81 81q-101 27 -166 111t-65 192q0 131 93 223.5t224 92.5zM225 292q0 -61 44.5 -105.5t105.5 -44.5t105.5 44.5t44.5 105.5q0 60 -44.5 105t-105.5 45t-105.5 -45t-44.5 -105z" />
    <glyph glyph-name="colon" unicode=":" horiz-adv-x="458" 
d="M208 158q42 0 71 -29t29 -71q0 -41 -29 -70.5t-71 -29.5q-41 0 -70.5 29.5t-29.5 70.5q0 42 29.5 71t70.5 29zM208 492q42 0 71 -29.5t29 -70.5q0 -42 -29 -71t-71 -29q-41 0 -70.5 29t-29.5 71q0 41 29.5 70.5t70.5 29.5z" />
    <glyph glyph-name="semicolon" unicode=";" horiz-adv-x="458" 
d="M103 92l78 150q66 -34 105 -99.5t39 -142.5t-39 -142.5t-105 -99.5l-78 150q55 32 55 92t-55 92zM175 492q42 0 71 -29.5t29 -70.5q0 -42 -29 -71t-71 -29t-71 29t-29 71q0 41 29 70.5t71 29.5z" />
    <glyph glyph-name="less" unicode="&#x3c;" horiz-adv-x="667" 
d="M506 850l77 -150q-55 -31 -55 -92q0 -60 55 -91l-77 -150q-66 33 -105.5 98.5t-39.5 142.5q0 78 39 143.5t106 98.5zM214 850l78 -150q-56 -32 -56 -92q0 -59 56 -91l-78 -150q-66 33 -105.5 98.5t-39.5 142.5q0 78 39 143.5t106 98.5z" />
    <glyph glyph-name="equal" unicode="=" horiz-adv-x="500" 
d="M42 125v167h416v-167h-416zM42 417v166h416v-166h-416z" />
    <glyph glyph-name="greater" unicode="&#x3e;" horiz-adv-x="667" 
d="M86 700l78 150q66 -33 105 -98.5t39 -143.5q0 -77 -39 -142.5t-105 -98.5l-78 150q56 32 56 91q0 60 -56 92zM378 700l78 150q66 -33 105 -99t39 -143t-39 -142.5t-105 -98.5l-78 150q55 31 55 91q0 61 -55 92z" />
    <glyph glyph-name="question" unicode="?" horiz-adv-x="708" 
d="M250 175v167h58q61 0 105.5 44.5t44.5 105.5q0 60 -44.5 105t-105.5 45q-38 0 -59 -9t-49 -36l-117 122q94 89 225 89t224 -92.5t93 -223.5t-93 -224t-224 -93h-58zM308 158q42 0 71 -29t29 -71q0 -41 -29 -70.5t-71 -29.5q-41 0 -70.5 29.5t-29.5 70.5q0 42 29.5 71
t70.5 29z" />
    <glyph glyph-name="at" unicode="@" horiz-adv-x="708" 
d="M106 481l105 -128q-26 -27 -34 -44q-10 -21 -10 -59q0 -10 2.5 -24.5t2.5 -19.5l153 152l150 -150q8 24 8 42v208q0 61 -44.5 105.5t-105.5 44.5q-38 0 -59 -9t-49 -35l-117 122q94 89 225 89t224 -93t93 -224v-208q0 -70 -30.5 -131.5t-83.5 -99.5l-61 -44l-150 150
l-150 -150l-58 42q-117 85 -117 233q0 150 106 231z" />
    <glyph glyph-name="A" unicode="A" 
d="M583 0h-416l-53 -86l-145 89l406 658l406 -658l-145 -89zM269 167h212l-106 172z" />
    <glyph glyph-name="B" unicode="B" horiz-adv-x="794" 
d="M275 792v-223q69 39 150 39q131 0 224 -92.5t93 -223.5t-93 -224t-224 -93q-122 0 -211 81l-106 -106l-116 117l116 116v609h167zM575 292q0 60 -44.5 105t-105.5 45t-105.5 -45t-44.5 -105q0 -61 44.5 -105.5t105.5 -44.5t105.5 44.5t44.5 105.5z" />
    <glyph glyph-name="C" unicode="C" horiz-adv-x="619" 
d="M594 519l-116 -122q-28 27 -48 35q-23 10 -61 10q-60 0 -105 -45t-45 -105q0 -61 45 -105.5t105 -44.5q38 0 61 10q20 8 48 34l116 -122q-92 -89 -225 -89q-131 0 -223.5 93t-92.5 224t92.5 223.5t223.5 92.5q133 0 225 -89z" />
    <glyph glyph-name="D" unicode="D" horiz-adv-x="794" 
d="M686 792v-609l117 -116l-117 -117l-105 106q-91 -81 -212 -81q-131 0 -223.5 93t-92.5 224t92.5 223.5t223.5 92.5q81 0 150 -39v223h167zM219 292q0 -61 45 -105.5t105 -44.5q61 0 105.5 44.5t44.5 105.5q0 60 -44.5 105t-105.5 45q-60 0 -105 -45t-45 -105z" />
    <glyph glyph-name="E" unicode="E" horiz-adv-x="706" 
d="M686 183h-464q11 -53 52.5 -89t94.5 -36h25v-166h-25q-131 0 -223.5 92.5t-92.5 223.5v84q0 131 92.5 223.5t223.5 92.5t224 -92.5t93 -223.5v-109zM231 350h275q-18 41 -55 66.5t-82 25.5t-82 -25.5t-56 -66.5z" />
    <glyph glyph-name="F" unicode="F" horiz-adv-x="500" 
d="M42 417h83v83q0 130 94 219t223 89h25v-166h-25q-60 0 -105 -42.5t-45 -99.5v-83h175v-167h-175v-125q0 -131 -93 -224t-224 -93h-25v167h25q61 0 105.5 44.5t44.5 105.5v125h-83v167z" />
    <glyph glyph-name="G" unicode="G" horiz-adv-x="794" 
d="M344 -22q-109 0 -198 91q-93 96 -93 223q0 131 92.5 223.5t223.5 92.5q122 0 212 -80l105 105l117 -116l-117 -117v-275q0 -131 -93 -224t-224 -93h-25v170zM219 292q0 -61 45 -105.5t105 -44.5q61 0 105.5 44.5t44.5 105.5q0 60 -44.5 105t-105.5 45q-60 0 -105 -45
t-45 -105z" />
    <glyph glyph-name="H" unicode="H" horiz-adv-x="728" 
d="M239 792v-375h250v166h167v-583h-167v250h-250v-250h-167v792h167z" />
    <glyph glyph-name="I" unicode="I" horiz-adv-x="311" 
d="M72 583h167v-583h-167v583zM156 833q41 0 70.5 -29t29.5 -71q0 -41 -29.5 -70.5t-70.5 -29.5q-42 0 -71 29.5t-29 70.5q0 42 29 71t71 29z" />
    <glyph glyph-name="J" unicode="J" horiz-adv-x="414" 
d="M175 583h167v-458q0 -131 -93 -224t-224 -93h-25v167h25q61 0 105.5 44.5t44.5 105.5v458zM258 833q42 0 71 -29t29 -71q0 -41 -29 -70.5t-71 -29.5q-41 0 -70.5 29.5t-29.5 70.5q0 42 29.5 71t70.5 29z" />
    <glyph glyph-name="K" unicode="K" horiz-adv-x="697" 
d="M567 -28l-181 225l-314 -394v989h167v-511l269 338l128 -105l-144 -183l202 -253z" />
    <glyph glyph-name="L" unicode="L" horiz-adv-x="572" 
d="M72 792h167v-625h292v-167h-459v792z" />
    <glyph glyph-name="M" unicode="M" horiz-adv-x="1000" 
d="M158 -33l-150 66l284 648l208 -475l208 475l284 -648l-150 -66l-134 305l-208 -475l-208 475z" />
    <glyph glyph-name="N" unicode="N" horiz-adv-x="728" 
d="M489 583h167v-772l-417 503v-314h-167v772l417 -503v314z" />
    <glyph glyph-name="O" unicode="O" horiz-adv-x="739" 
d="M53 292q0 131 92.5 223.5t223.5 92.5t224 -92.5t93 -223.5t-93 -224t-224 -93t-223.5 93t-92.5 224zM219 292q0 -61 45 -105.5t105 -44.5q61 0 105.5 44.5t44.5 105.5q0 60 -44.5 105t-105.5 45q-60 0 -105 -45t-45 -105z" />
    <glyph glyph-name="P" unicode="P" horiz-adv-x="794" 
d="M108 633l106 -105q88 80 211 80q131 0 224 -92.5t93 -223.5t-93 -224t-224 -93q-81 0 -150 39v-181h-167v567l-116 117zM575 292q0 60 -44.5 105t-105.5 45t-105.5 -45t-44.5 -105q0 -61 44.5 -105.5t105.5 -44.5t105.5 44.5t44.5 105.5z" />
    <glyph glyph-name="Q" unicode="Q" horiz-adv-x="739" 
d="M686 292q0 -83 -44 -164l127 -128l-116 -117l-131 131q-69 -39 -153 -39q-131 0 -223.5 93t-92.5 224t92.5 223.5t223.5 92.5t224 -92.5t93 -223.5zM219 292q0 -61 45 -105.5t105 -44.5q61 0 105.5 44.5t44.5 105.5q0 60 -44.5 105t-105.5 45q-60 0 -105 -45t-45 -105z
" />
    <glyph glyph-name="R" unicode="R" horiz-adv-x="467" 
d="M108 0v400l-116 117l116 116l106 -105q88 80 211 80h17v-166h-17q-61 0 -105.5 -45t-44.5 -105v-292h-167z" />
    <glyph glyph-name="S" unicode="S" horiz-adv-x="500" 
d="M475 692v-167h-25q-61 0 -105.5 -44.5t-44.5 -105.5v-167q0 -131 -93 -223.5t-224 -92.5h-25v166h25q61 0 105.5 45t44.5 105v167q0 131 93 224t224 93h25z" />
    <glyph glyph-name="T" unicode="T" horiz-adv-x="500" 
d="M42 583h83v209h167v-209h175v-166h-175v-125q0 -61 44.5 -105.5t105.5 -44.5h25v-167h-25q-131 0 -224 93t-93 224v125h-83v166z" />
    <glyph glyph-name="U" unicode="U" 
d="M58 583h167v-291q0 -61 44.5 -105.5t105.5 -44.5t105.5 44.5t44.5 105.5v291h167v-291q0 -131 -93 -224t-224 -93t-224 93t-93 224v291z" />
    <glyph glyph-name="V" unicode="V" 
d="M-22 564l144 89l253 -409l253 409l144 -89l-397 -642z" />
    <glyph glyph-name="W" unicode="W" horiz-adv-x="1000" 
d="M8 575l150 67l134 -306l208 475l208 -475l134 306l150 -67l-284 -647l-208 475l-208 -475z" />
    <glyph glyph-name="X" unicode="X" 
d="M142 642l227 -231l231 231l117 -117l-231 -228l231 -230l-117 -117l-228 228l-230 -228l-117 117l228 227l-228 231z" />
    <glyph glyph-name="Y" unicode="Y" 
d="M142 642l233 -234l233 234l117 -117l-267 -267v-258h-166v258l-267 267z" />
    <glyph glyph-name="Z" unicode="Z" 
d="M117 433v150h647l-433 -433h302v-150h-664l434 433h-286z" />
    <glyph glyph-name="bracketleft" unicode="[" horiz-adv-x="500" 
d="M417 792v-167h-175v-625h175v-167h-342v959h342z" />
    <glyph glyph-name="backslash" unicode="\" horiz-adv-x="42" 
 />
    <glyph glyph-name="bracketright" unicode="]" horiz-adv-x="500" 
d="M67 625v167h341v-959h-341v167h175v625h-175z" />
    <glyph glyph-name="asciicircum" unicode="^" horiz-adv-x="0" 
 />
    <glyph glyph-name="underscore" unicode="_" horiz-adv-x="417" 
d="M0 -167v167h417v-167h-417z" />
    <glyph glyph-name="grave" unicode="`" horiz-adv-x="417" 
d="M317 681l-89 -89l-153 152l89 89z" />
    <glyph glyph-name="a" unicode="a" horiz-adv-x="758" 
d="M519 569v98h167v-750h-167v97q-69 -39 -150 -39q-131 0 -223.5 93t-92.5 224t92.5 223.5t223.5 92.5q81 0 150 -39zM369 442q-60 0 -105 -45t-45 -105q0 -61 45 -105.5t105 -44.5q61 0 105.5 44.5t44.5 105.5q0 60 -44.5 105t-105.5 45z" />
    <glyph glyph-name="b" unicode="b" horiz-adv-x="758" 
d="M239 792v-223q69 39 150 39q131 0 224 -92.5t93 -223.5t-93 -224t-224 -93q-81 0 -150 39v-97h-167v875h167zM539 292q0 60 -45 105t-105 45q-61 0 -105.5 -45t-44.5 -105q0 -61 44.5 -105.5t105.5 -44.5q60 0 105 44.5t45 105.5z" />
    <glyph glyph-name="c" unicode="c" horiz-adv-x="619" 
d="M594 519l-116 -122q-28 27 -48 35q-23 10 -61 10q-60 0 -105 -45t-45 -105q0 -61 45 -105.5t105 -44.5q38 0 61 10q20 8 48 34l116 -122q-92 -89 -225 -89q-131 0 -223.5 93t-92.5 224t92.5 223.5t223.5 92.5q133 0 225 -89z" />
    <glyph glyph-name="d" unicode="d" horiz-adv-x="758" 
d="M519 569v223h167v-875h-167v97q-69 -39 -150 -39q-131 0 -223.5 93t-92.5 224t92.5 223.5t223.5 92.5q81 0 150 -39zM369 442q-60 0 -105 -45t-45 -105q0 -61 45 -105.5t105 -44.5q61 0 105.5 44.5t44.5 105.5q0 60 -44.5 105t-105.5 45z" />
    <glyph glyph-name="e" unicode="e" horiz-adv-x="706" 
d="M686 183h-464q11 -53 52.5 -89t94.5 -36h25v-166h-25q-131 0 -223.5 92.5t-92.5 223.5v84q0 131 92.5 223.5t223.5 92.5t224 -92.5t93 -223.5v-109zM231 350h275q-18 41 -55 66.5t-82 25.5t-82 -25.5t-56 -66.5z" />
    <glyph glyph-name="f" unicode="f" horiz-adv-x="500" 
d="M42 417h83v83q0 130 94 219t223 89h25v-166h-25q-60 0 -105 -42.5t-45 -99.5v-83h175v-167h-175v-125q0 -131 -93 -224t-224 -93h-25v167h25q61 0 105.5 44.5t44.5 105.5v125h-83v167z" />
    <glyph glyph-name="g" unicode="g" horiz-adv-x="758" 
d="M344 -192v170q-109 0 -198 91q-93 96 -93 223q0 131 92.5 223.5t223.5 92.5q81 0 150 -39v98h167v-542q0 -131 -93 -224t-224 -93h-25zM219 292q0 -61 45 -105.5t105 -44.5q61 0 105.5 44.5t44.5 105.5q0 60 -44.5 105t-105.5 45q-60 0 -105 -45t-45 -105z" />
    <glyph glyph-name="h" unicode="h" horiz-adv-x="728" 
d="M239 792v-375h250v166h167v-583h-167v250h-250v-250h-167v792h167z" />
    <glyph glyph-name="i" unicode="i" horiz-adv-x="311" 
d="M72 583h167v-583h-167v583zM156 833q41 0 70.5 -29t29.5 -71q0 -41 -29.5 -70.5t-70.5 -29.5q-42 0 -71 29.5t-29 70.5q0 42 29 71t71 29z" />
    <glyph glyph-name="j" unicode="j" horiz-adv-x="414" 
d="M175 583h167v-458q0 -131 -93 -224t-224 -93h-25v167h25q61 0 105.5 44.5t44.5 105.5v458zM258 833q42 0 71 -29t29 -71q0 -41 -29 -70.5t-71 -29.5q-41 0 -70.5 29.5t-29.5 70.5q0 42 29.5 71t70.5 29z" />
    <glyph glyph-name="k" unicode="k" horiz-adv-x="697" 
d="M567 -28l-181 225l-314 -394v989h167v-511l269 338l128 -105l-144 -183l202 -253z" />
    <glyph glyph-name="l" unicode="l" horiz-adv-x="489" 
d="M72 792h167v-625h208v-167h-375v792z" />
    <glyph glyph-name="m" unicode="m" horiz-adv-x="1000" 
d="M158 -33l-150 66l284 648l208 -475l208 475l284 -648l-150 -66l-134 305l-208 -475l-208 475z" />
    <glyph glyph-name="n" unicode="n" horiz-adv-x="728" 
d="M489 583h167v-772l-417 503v-314h-167v772l417 -503v314z" />
    <glyph glyph-name="o" unicode="o" horiz-adv-x="739" 
d="M53 292q0 131 92.5 223.5t223.5 92.5t224 -92.5t93 -223.5t-93 -224t-224 -93t-223.5 93t-92.5 224zM219 292q0 -61 45 -105.5t105 -44.5q61 0 105.5 44.5t44.5 105.5q0 60 -44.5 105t-105.5 45q-60 0 -105 -45t-45 -105z" />
    <glyph glyph-name="p" unicode="p" horiz-adv-x="758" 
d="M72 -167v834h167v-98q69 39 150 39q131 0 224 -92.5t93 -223.5t-93 -224t-224 -93q-81 0 -150 39v-181h-167zM539 292q0 60 -45 105t-105 45q-61 0 -105.5 -45t-44.5 -105q0 -61 44.5 -105.5t105.5 -44.5q60 0 105 44.5t45 105.5z" />
    <glyph glyph-name="q" unicode="q" horiz-adv-x="758" 
d="M519 569v98h167v-834h-167v181q-69 -39 -150 -39q-131 0 -223.5 93t-92.5 224t92.5 223.5t223.5 92.5q81 0 150 -39zM369 442q-60 0 -105 -45t-45 -105q0 -61 45 -105.5t105 -44.5q61 0 105.5 44.5t44.5 105.5q0 60 -44.5 105t-105.5 45z" />
    <glyph glyph-name="r" unicode="r" horiz-adv-x="431" 
d="M72 0v667h167v-98q69 39 150 39h17v-166h-17q-61 0 -105.5 -45t-44.5 -105v-292h-167z" />
    <glyph glyph-name="s" unicode="s" horiz-adv-x="500" 
d="M475 808v-166h-25q-61 0 -105.5 -45t-44.5 -105v-367q0 -131 -93 -224t-224 -93h-25v167h25q61 0 105.5 44.5t44.5 105.5v367q0 131 93 223.5t224 92.5h25z" />
    <glyph glyph-name="t" unicode="t" horiz-adv-x="500" 
d="M42 583h83v209h167v-209h175v-166h-175v-125q0 -61 44.5 -105.5t105.5 -44.5h25v-167h-25q-131 0 -224 93t-93 224v125h-83v166z" />
    <glyph glyph-name="u" unicode="u" 
d="M58 583h167v-291q0 -61 44.5 -105.5t105.5 -44.5t105.5 44.5t44.5 105.5v291h167v-291q0 -131 -93 -224t-224 -93t-224 93t-93 224v291z" />
    <glyph glyph-name="v" unicode="v" 
d="M-22 564l144 89l253 -409l253 409l144 -89l-397 -642z" />
    <glyph glyph-name="w" unicode="w" horiz-adv-x="1000" 
d="M8 575l150 67l134 -306l208 475l208 -475l134 306l150 -67l-284 -647l-208 475l-208 -475z" />
    <glyph glyph-name="x" unicode="x" 
d="M142 642l227 -231l231 231l117 -117l-231 -228l231 -230l-117 -117l-228 228l-230 -228l-117 117l228 227l-228 231z" />
    <glyph glyph-name="y" unicode="y" 
d="M142 642l233 -234l233 234l117 -117l-267 -267v-425h-166v425l-267 267z" />
    <glyph glyph-name="z" unicode="z" horiz-adv-x="708" 
d="M50 433v150h647l-375 -433h336v-150h-664l375 433h-319z" />
    <glyph glyph-name="braceleft" unicode="{" horiz-adv-x="583" 
d="M500 808v-166h-25q-60 0 -105 -42.5t-45 -99.5v-108l-75 -75l75 -75v-117q0 -61 44.5 -105.5t105.5 -44.5h25v-167h-25q-131 0 -224 93t-93 224v50l-141 142l141 141v42q0 129 95 220q93 88 222 88h25z" />
    <glyph glyph-name="bar" unicode="|" horiz-adv-x="0" 
 />
    <glyph glyph-name="braceright" unicode="}" horiz-adv-x="583" 
d="M83 642v166h25q129 0 223 -89t94 -219v-42l142 -141l-142 -142v-50q0 -131 -93 -224t-224 -93h-25v167h25q61 0 105.5 44.5t44.5 105.5v117l75 75l-75 75v108q0 57 -45 99.5t-105 42.5h-25z" />
    <glyph glyph-name="asciitilde" unicode="~" horiz-adv-x="0" 
 />
    <glyph glyph-name="nonbreakingspace" unicode="&#xa0;" horiz-adv-x="417" 
 />
    <glyph glyph-name="exclamdown" unicode="&#xa1;" horiz-adv-x="458" 
d="M317 417h-167v-584h167v584zM133 567q0 -42 29.5 -71t70.5 -29q42 0 71 29t29 71q0 41 -29 70.5t-71 29.5q-41 0 -70.5 -29.5t-29.5 -70.5z" />
    <glyph glyph-name="cent" unicode="&#xa2;" horiz-adv-x="625" 
d="M453 792v-153q80 -20 141 -78l-116 -122q-28 26 -48 34q-23 10 -61 10q-60 0 -105 -44.5t-45 -105.5q0 -60 45 -105t105 -45q38 0 61 10q20 8 48 35l116 -122q-59 -57 -141 -78v-153h-167v153q-101 27 -167 111.5t-66 193.5t66 194t167 112v153h167z" />
    <glyph glyph-name="sterling" unicode="&#xa3;" horiz-adv-x="611" 
d="M42 417h83v83q0 130 94 219t223 89h25v-166h-25q-60 0 -105 -42.5t-45 -99.5v-83h175v-167h-175v-83h208v-167h-375v250h-83v167z" />
    <glyph glyph-name="currency" unicode="&#xa4;" horiz-adv-x="600" 
d="M125 642v166h25q131 0 224 -92.5t93 -223.5q0 -109 -86 -220l-81 -105h267v-167h-603l292 383q26 34 33 49q11 24 11 60q0 60 -44.5 105t-105.5 45h-25z" />
    <glyph glyph-name="yen" unicode="&#xa5;" 
d="M292 167v91l-267 267l117 117l233 -234l233 234l117 -117l-267 -267v-91h125v-167h-125v-167h-166v167h-117v167h117z" />
    <glyph glyph-name="brokenbar" unicode="&#xa6;" horiz-adv-x="333" 
d="M106 0v292h122v-292h-122zM106 375v292h122v-292h-122z" />
    <glyph glyph-name="section" unicode="&#xa7;" 
d="M375 -25q-130 0 -223.5 93t-93.5 224q0 133 89 222l320 319l116 -116l-122 -123q101 -27 166 -111t65 -191q0 -131 -93 -224t-224 -93zM525 292q0 60 -44.5 105t-105.5 45t-105.5 -45t-44.5 -105q0 -61 44.5 -105.5t105.5 -44.5t105.5 44.5t44.5 105.5z" />
    <glyph glyph-name="dieresis" unicode="&#xa8;" horiz-adv-x="542" 
d="M303 761q0 32 26 57.5t57 25.5q32 0 57.5 -25.5t25.5 -57.5q0 -31 -25.5 -57t-57.5 -26q-31 0 -57 26t-26 57zM53 761q0 32 26 57.5t57 25.5q32 0 57.5 -25.5t25.5 -57.5q0 -31 -25.5 -57t-57.5 -26q-31 0 -57 26t-26 57z" />
    <glyph glyph-name="copyright" unicode="&#xa9;" horiz-adv-x="850" 
d="M11 389q0 168 121 288t290 120t291.5 -120t122.5 -288q0 -169 -123 -293t-291 -124t-289.5 124t-121.5 293zM422 700q-132 0 -223 -90t-91 -221q0 -132 91.5 -226t222.5 -94t224 94t93 226q0 131 -92.5 221t-224.5 90zM492 431l-9 5q-25 20 -47 20q-27 0 -45.5 -21
t-18.5 -43q0 -28 19 -46t45 -18q21 0 33 8q7 5 14 11l9 6l75 -75l-9 -9q-61 -50 -122 -50q-70 0 -119.5 50t-49.5 123q0 67 50.5 118t118.5 51q69 0 122 -47l9 -8z" />
    <glyph glyph-name="ordfeminine" unicode="&#xaa;" horiz-adv-x="0" 
 />
    <glyph glyph-name="guillemotleft" unicode="&#xab;" horiz-adv-x="833" 
d="M617 619l100 -100l-131 -130l131 -131l-100 -100l-231 231zM256 619l100 -100l-131 -130l131 -131l-100 -100l-231 231z" />
    <glyph glyph-name="logicalnot" unicode="&#xac;" horiz-adv-x="0" 
 />
    <glyph glyph-name="minus" unicode="&#xad;" horiz-adv-x="589" 
d="M119 292v166h339v-166h-339z" />
    <glyph glyph-name="minus" unicode="&#x2212;" horiz-adv-x="589" 
d="M119 292v166h339v-166h-339z" />
    <glyph glyph-name="registered" unicode="&#xae;" horiz-adv-x="850" 
d="M11 389q0 168 121 288t290 120t291.5 -120t122.5 -288q0 -169 -123 -293t-291 -124t-289.5 124t-121.5 293zM422 700q-132 0 -223 -90t-91 -221q0 -132 91.5 -226t222.5 -94t224 94t93 226q0 131 -92.5 221t-224.5 90zM358 414l-64 64l75 75l53 -53q50 39 106 39h19v-106
h-19q-23 0 -43.5 -21.5t-20.5 -42.5v-161h-106v206z" />
    <glyph glyph-name="macron" unicode="&#xaf;" horiz-adv-x="392" 
d="M94 644v128h209v-128h-209z" />
    <glyph glyph-name="macron" unicode="&#x2c9;" horiz-adv-x="392" 
d="M94 644v128h209v-128h-209z" />
    <glyph glyph-name="degree" unicode="&#xb0;" 
d="M517 667q0 -47 -25 -81q89 -36 144.5 -116t55.5 -178q0 -131 -93 -224t-224 -93t-224 93t-93 224q0 98 56 178t144 116q-25 39 -25 81q0 60 40.5 100.5t101.5 40.5t101.5 -40.5t40.5 -100.5zM225 292q0 -61 44.5 -105.5t105.5 -44.5t105.5 44.5t44.5 105.5
q0 60 -44.5 105t-105.5 45t-105.5 -45t-44.5 -105z" />
    <glyph glyph-name="plusminus" unicode="&#xb1;" horiz-adv-x="0" 
 />
    <glyph glyph-name="twosuperior" unicode="&#xb2;" horiz-adv-x="417" 
d="M83 669v123h25q83 0 143 -60t60 -143q0 -66 -55 -136l-37 -47h150v-123h-394l189 248q25 33 25 58q0 33 -23.5 56.5t-57.5 23.5h-25z" />
    <glyph glyph-name="threesuperior" unicode="&#xb3;" horiz-adv-x="417" 
d="M58 669v123h345l-81 -150q47 -57 47 -136q0 -84 -58 -142t-142 -58q-89 0 -144 55l-8 8l86 89l8 -8q15 -15 24 -18.5t34 -3.5q32 0 55 23.5t23 54.5q0 11 -5.5 22.5t-5.5 15.5h-111l72 125h-139z" />
    <glyph glyph-name="acute" unicode="&#xb4;" horiz-adv-x="417" 
d="M183 592l-89 89l153 152l89 -89z" />
    <glyph glyph-name="mu" unicode="&#xb5;" 
d="M58 -167v750h167v-291q0 -61 44.5 -105.5t105.5 -44.5t105.5 44.5t44.5 105.5v291h167v-291q0 -131 -93 -224t-224 -93q-81 0 -150 39v-181h-167z" />
    <glyph glyph-name="mu" unicode="&#x3bc;" 
d="M58 -167v750h167v-291q0 -61 44.5 -105.5t105.5 -44.5t105.5 44.5t44.5 105.5v291h167v-291q0 -131 -93 -224t-224 -93q-81 0 -150 39v-181h-167z" />
    <glyph glyph-name="paragraph" unicode="&#xb6;" horiz-adv-x="886" 
d="M25 542q0 106 72 178t178 72h500v-792h-167v625h-166v-625h-167v292q-106 0 -178 72t-72 178z" />
    <glyph glyph-name="periodcentered" unicode="&#xb7;" 
d="M375 608q130 0 223.5 -92.5t93.5 -223.5q0 -134 -89 -223l-278 -277l-117 116l81 81q-101 27 -166 111t-65 192q0 131 93 223.5t224 92.5zM225 292q0 -61 44.5 -105.5t105.5 -44.5t105.5 44.5t44.5 105.5q0 60 -44.5 105t-105.5 45t-105.5 -45t-44.5 -105z" />
    <glyph glyph-name="periodcentered" unicode="&#x2219;" 
d="M375 608q130 0 223.5 -92.5t93.5 -223.5q0 -134 -89 -223l-278 -277l-117 116l81 81q-101 27 -166 111t-65 192q0 131 93 223.5t224 92.5zM225 292q0 -61 44.5 -105.5t105.5 -44.5t105.5 44.5t44.5 105.5q0 60 -44.5 105t-105.5 45t-105.5 -45t-44.5 -105z" />
    <glyph glyph-name="cedilla" unicode="&#xb8;" horiz-adv-x="458" 
d="M172 25h128v-25q0 -71 -35.5 -129.5t-95.5 -92.5l-66 111q39 26 54 49t15 62v25z" />
    <glyph glyph-name="onesuperior" unicode="&#xb9;" horiz-adv-x="278" 
d="M78 792h122v-373h-122v373z" />
    <glyph glyph-name="ordmasculine" unicode="&#xba;" horiz-adv-x="0" 
 />
    <glyph glyph-name="guillemotright" unicode="&#xbb;" horiz-adv-x="833" 
d="M114 517l105 105l234 -233l-234 -233l-105 105l128 128zM475 517l106 105l233 -233l-233 -233l-106 105l128 128z" />
    <glyph glyph-name="onequarter" unicode="&#xbc;" horiz-adv-x="939" 
d="M106 792h122v-373h-122v373zM656 778l88 -89l-716 -717l-89 89zM653 500l108 -56l-119 -222h166v-222h-122v100h-244z" />
    <glyph glyph-name="onehalf" unicode="&#xbd;" horiz-adv-x="967" 
d="M628 392v122h25q83 0 143 -60t60 -143q0 -63 -56 -136l-36 -47h150v-122h-395l189 247q25 33 25 58q0 34 -23.5 57.5t-56.5 23.5h-25zM106 792h122v-373h-122v373zM656 778l88 -89l-716 -717l-89 89z" />
    <glyph glyph-name="threequarters" unicode="&#xbe;" horiz-adv-x="1067" 
d="M58 669v123h345l-81 -150q47 -57 47 -136q0 -84 -58 -142t-142 -58q-89 0 -144 55l-8 8l86 89l8 -8q15 -15 24 -18.5t34 -3.5q32 0 55 23.5t23 54.5q0 11 -5.5 22.5t-5.5 15.5h-111l72 125h-139zM844 778l89 -89l-716 -717l-89 89zM842 500l108 -56l-119 -222h166v-222
h-122v100h-244z" />
    <glyph glyph-name="questiondown" unicode="&#xbf;" horiz-adv-x="708" 
d="M431 283v167h-59q-131 0 -223.5 -93t-92.5 -224t92.5 -223.5t223.5 -92.5q133 0 225 89l-116 122q-29 -27 -48 -35q-23 -10 -61 -10q-60 0 -105 45t-45 105q0 61 45 105.5t105 44.5h59zM272 567q0 -42 29.5 -71t70.5 -29q42 0 71 29t29 71q0 41 -29 70.5t-71 29.5
q-41 0 -70.5 -29.5t-29.5 -70.5z" />
    <glyph glyph-name="Agrave" unicode="&#xc0;" 
d="M269 167h212l-106 172zM464 739l-83 -86l400 -650l-145 -89l-53 86h-416l-53 -86l-145 89l400 650l-147 150l89 89z" />
    <glyph glyph-name="Aacute" unicode="&#xc1;" 
d="M283 181h211l-105 172zM536 808l-142 -141l400 -650l-144 -89l-53 86h-416l-53 -86l-145 89l395 641l-84 86l153 153z" />
    <glyph glyph-name="Acircumflex" unicode="&#xc2;" 
d="M589 0h-417l-53 -86l-144 89l406 658l405 -658l-144 -89zM275 167h211l-105 172zM556 731l-84 -84l-97 97l-97 -97l-84 84l181 180z" />
    <glyph glyph-name="Atilde" unicode="&#xc3;" 
d="M583 0h-416l-53 -86l-145 89l406 658l406 -658l-145 -89zM269 167h212l-106 172zM525 858l78 -77l-150 -150l-111 111l-73 -73l-77 78l150 150l111 -111z" />
    <glyph glyph-name="Adieresis" unicode="&#xc4;" 
d="M583 0h-416l-53 -86l-145 89l406 658l406 -658l-145 -89zM269 167h212l-106 172zM406 739q0 32 26 57.5t57 25.5q32 0 57.5 -25.5t25.5 -57.5q0 -31 -25.5 -57t-57.5 -26q-31 0 -57 26t-26 57zM156 739q0 32 26 57.5t57 25.5q32 0 57.5 -25.5t25.5 -57.5q0 -31 -25.5 -57
t-57.5 -26q-31 0 -57 26t-26 57z" />
    <glyph glyph-name="Aring" unicode="&#xc5;" 
d="M500 739q0 -43 -28 -78.5t-69 -46.5l378 -611l-145 -89l-53 86h-416l-53 -86l-145 89l378 611q-44 11 -73.5 45.5t-29.5 79.5q0 52 38 90t90 38t90 -38t38 -90zM269 167h212l-106 172zM372 783q-19 0 -31.5 -12.5t-12.5 -31.5t12.5 -32t31.5 -13t32 13t13 32t-13 31.5
t-32 12.5z" />
    <glyph glyph-name="AE" unicode="&#xc6;" horiz-adv-x="1167" 
d="M836 -108q-78 0 -153 33l3 -8h-167v97q-69 -39 -150 -39q-131 0 -223.5 93t-92.5 224t92.5 223.5t223.5 92.5q81 0 150 -39v98h167v-98q73 39 150 39q131 0 224 -92.5t93 -223.5v-109h-464q11 -53 52.5 -89t94.5 -36h25v-166h-25zM369 442q-60 0 -105 -45t-45 -105
q0 -61 45 -105.5t105 -44.5q61 0 105.5 44.5t44.5 105.5q0 60 -44.5 105t-105.5 45zM697 350h275q-17 41 -54 66.5t-82 25.5t-82.5 -25.5t-56.5 -66.5z" />
    <glyph glyph-name="Ccedilla" unicode="&#xc7;" horiz-adv-x="619" 
d="M158 -83q67 40 67 91q-79 40 -125.5 116t-46.5 168q0 131 92.5 223.5t223.5 92.5q133 0 225 -89l-116 -122q-28 27 -48 35q-23 10 -61 10q-60 0 -105 -45t-45 -105q0 -61 45 -105.5t105 -44.5q38 0 61 10q20 8 48 34l116 -122q-92 -89 -225 -89l-19 3q-26 -117 -125 -172
z" />
    <glyph glyph-name="Egrave" unicode="&#xc8;" horiz-adv-x="706" 
d="M686 183h-464q11 -53 52.5 -89t94.5 -36h25v-166h-25q-131 0 -223.5 92.5t-92.5 223.5v84q0 131 92.5 223.5t223.5 92.5t224 -92.5t93 -223.5v-109zM231 350h275q-18 41 -55 66.5t-82 25.5t-82 -25.5t-56 -66.5zM428 739l-89 -89l-153 153l89 89z" />
    <glyph glyph-name="Eacute" unicode="&#xc9;" horiz-adv-x="706" 
d="M686 183h-464q11 -53 52.5 -89t94.5 -36h25v-166h-25q-131 0 -223.5 92.5t-92.5 223.5v84q0 131 92.5 223.5t223.5 92.5t224 -92.5t93 -223.5v-109zM231 350h275q-18 41 -55 66.5t-82 25.5t-82 -25.5t-56 -66.5zM336 650l-89 89l153 153l89 -89z" />
    <glyph glyph-name="Ecircumflex" unicode="&#xca;" horiz-adv-x="706" 
d="M686 183h-464q11 -53 52.5 -89t94.5 -36h25v-166h-25q-131 0 -223.5 92.5t-92.5 223.5v84q0 131 92.5 223.5t223.5 92.5t224 -92.5t93 -223.5v-109zM231 350h275q-18 41 -55 66.5t-82 25.5t-82 -25.5t-56 -66.5zM536 736l-83 -83l-97 97l-98 -97l-83 83l181 181z" />
    <glyph glyph-name="Edieresis" unicode="&#xcb;" horiz-adv-x="706" 
d="M686 183h-464q11 -53 52.5 -89t94.5 -36h25v-166h-25q-131 0 -223.5 92.5t-92.5 223.5v84q0 131 92.5 223.5t223.5 92.5t224 -92.5t93 -223.5v-109zM231 350h275q-18 41 -55 66.5t-82 25.5t-82 -25.5t-56 -66.5zM397 739q0 31 26 57t58 26q31 0 57 -26t26 -57t-26 -57
t-57 -26q-32 0 -58 26t-26 57zM147 739q0 31 26 57t58 26q31 0 57 -26t26 -57t-26 -57t-57 -26q-32 0 -58 26t-26 57z" />
    <glyph glyph-name="Igrave" unicode="&#xcc;" horiz-adv-x="311" 
d="M233 739l-89 -89l-152 153l89 89zM72 583h167v-583h-167v583z" />
    <glyph glyph-name="Iacute" unicode="&#xcd;" horiz-adv-x="311" 
d="M156 650l-89 89l152 153l89 -89zM72 583h167v-583h-167v583z" />
    <glyph glyph-name="Icircumflex" unicode="&#xce;" horiz-adv-x="311" 
d="M328 736l-84 -83l-97 97l-97 -97l-83 83l180 181zM72 583h167v-583h-167v583z" />
    <glyph glyph-name="Idieresis" unicode="&#xcf;" horiz-adv-x="311" 
d="M192 739q0 32 26 57.5t57 25.5q32 0 57.5 -25.5t25.5 -57.5q0 -31 -25.5 -57t-57.5 -26q-31 0 -57 26t-26 57zM-58 739q0 32 25.5 57.5t57.5 25.5t57.5 -25.5t25.5 -57.5q0 -31 -25.5 -57t-57.5 -26t-57.5 26t-25.5 57zM72 583h167v-583h-167v583z" />
    <glyph glyph-name="Eth" unicode="&#xd0;" horiz-adv-x="739" 
d="M739 686l-86 -86q33 -63 33 -142v-166q0 -131 -93 -224t-224 -93t-223.5 93t-92.5 224q0 127 93 223q89 91 198 91v169h25q98 0 173 -53l80 81zM219 292q0 -61 45 -105.5t105 -44.5q61 0 105.5 44.5t44.5 105.5q0 60 -44.5 105t-105.5 45q-60 0 -105 -45t-45 -105z" />
    <glyph glyph-name="Ntilde" unicode="&#xd1;" horiz-adv-x="728" 
d="M489 583h167v-772l-417 503v-314h-167v772l417 -503v314zM497 844l78 -77l-150 -150l-111 111l-72 -72l-78 77l150 150l111 -111z" />
    <glyph glyph-name="Ograve" unicode="&#xd2;" horiz-adv-x="739" 
d="M53 292q0 131 92.5 223.5t223.5 92.5t224 -92.5t93 -223.5t-93 -224t-224 -93t-223.5 93t-92.5 224zM219 292q0 -61 45 -105.5t105 -44.5q61 0 105.5 44.5t44.5 105.5q0 60 -44.5 105t-105.5 45q-60 0 -105 -45t-45 -105zM469 739l-88 -89l-153 153l89 89z" />
    <glyph glyph-name="Oacute" unicode="&#xd3;" horiz-adv-x="739" 
d="M53 292q0 131 92.5 223.5t223.5 92.5t224 -92.5t93 -223.5t-93 -224t-224 -93t-223.5 93t-92.5 224zM219 292q0 -61 45 -105.5t105 -44.5q61 0 105.5 44.5t44.5 105.5q0 60 -44.5 105t-105.5 45q-60 0 -105 -45t-45 -105zM353 650l-89 89l153 153l89 -89z" />
    <glyph glyph-name="Ocircumflex" unicode="&#xd4;" horiz-adv-x="739" 
d="M53 292q0 131 92.5 223.5t223.5 92.5t224 -92.5t93 -223.5t-93 -224t-224 -93t-223.5 93t-92.5 224zM219 292q0 -61 45 -105.5t105 -44.5q61 0 105.5 44.5t44.5 105.5q0 60 -44.5 105t-105.5 45q-60 0 -105 -45t-45 -105zM558 736l-83 -83l-97 97l-97 -97l-84 83l181 181
z" />
    <glyph glyph-name="Otilde" unicode="&#xd5;" horiz-adv-x="739" 
d="M53 292q0 131 92.5 223.5t223.5 92.5t224 -92.5t93 -223.5t-93 -224t-224 -93t-223.5 93t-92.5 224zM219 292q0 -61 45 -105.5t105 -44.5q61 0 105.5 44.5t44.5 105.5q0 60 -44.5 105t-105.5 45q-60 0 -105 -45t-45 -105zM497 844l78 -77l-150 -150l-111 111l-72 -72
l-78 77l150 150l111 -111z" />
    <glyph glyph-name="Odieresis" unicode="&#xd6;" horiz-adv-x="739" 
d="M400 739q0 31 26 57t57 26q32 0 58 -26t26 -57t-26 -57t-58 -26q-31 0 -57 26t-26 57zM150 739q0 31 26 57t57 26q32 0 58 -26t26 -57t-26 -57t-58 -26q-31 0 -57 26t-26 57zM53 292q0 131 92.5 223.5t223.5 92.5t224 -92.5t93 -223.5t-93 -224t-224 -93t-223.5 93
t-92.5 224zM219 292q0 -61 45 -105.5t105 -44.5q61 0 105.5 44.5t44.5 105.5q0 60 -44.5 105t-105.5 45q-60 0 -105 -45t-45 -105z" />
    <glyph glyph-name="multiply" unicode="&#xd7;" 
d="M197 586l172 -175l175 175l117 -117l-175 -172l175 -175l-117 -116l-172 172l-175 -172l-116 116l172 172l-172 175z" />
    <glyph glyph-name="Oslash" unicode="&#xd8;" horiz-adv-x="739" 
d="M219 292v-25l175 175h-25q-60 0 -105 -45t-45 -105zM519 292q0 7 -2.5 19t-2.5 17l-181 -181q5 0 17 -2.5t19 -2.5q61 0 105.5 44.5t44.5 105.5zM803 617l-161 -164q44 -77 44 -161q0 -131 -93 -224t-224 -93q-82 0 -163 44l-120 -119l-117 117l123 122q-39 69 -39 153
q0 131 92.5 223.5t223.5 92.5q84 0 153 -39l164 164z" />
    <glyph glyph-name="Ugrave" unicode="&#xd9;" 
d="M58 583h167v-291q0 -61 44.5 -105.5t105.5 -44.5t105.5 44.5t44.5 105.5v291h167v-291q0 -131 -93 -224t-224 -93t-224 93t-93 224v291zM456 739l-89 -89l-153 153l89 89z" />
    <glyph glyph-name="Uacute" unicode="&#xda;" 
d="M58 583h167v-291q0 -61 44.5 -105.5t105.5 -44.5t105.5 44.5t44.5 105.5v291h167v-291q0 -131 -93 -224t-224 -93t-224 93t-93 224v291zM364 650l-89 89l153 153l89 -89z" />
    <glyph glyph-name="Ucircumflex" unicode="&#xdb;" 
d="M58 583h167v-291q0 -61 44.5 -105.5t105.5 -44.5t105.5 44.5t44.5 105.5v291h167v-291q0 -131 -93 -224t-224 -93t-224 93t-93 224v291zM558 736l-83 -83l-97 97l-97 -97l-84 83l181 181z" />
    <glyph glyph-name="Udieresis" unicode="&#xdc;" horiz-adv-x="739" 
d="M58 583h167v-291q0 -61 44.5 -105.5t105.5 -44.5t105.5 44.5t44.5 105.5v291h167v-291q0 -131 -93 -224t-224 -93t-224 93t-93 224v291zM428 739q0 32 26 57.5t57 25.5q32 0 57.5 -25.5t25.5 -57.5q0 -31 -25.5 -57t-57.5 -26q-31 0 -57 26t-26 57zM178 739q0 32 26 57.5
t57 25.5q32 0 57.5 -25.5t25.5 -57.5q0 -31 -25.5 -57t-57.5 -26q-31 0 -57 26t-26 57z" />
    <glyph glyph-name="Yacute" unicode="&#xdd;" 
d="M142 642l233 -234l233 234l117 -117l-267 -267v-258h-166v258l-267 267zM392 647l-89 89l153 153l88 -89z" />
    <glyph glyph-name="Thorn" unicode="&#xde;" horiz-adv-x="758" 
d="M239 792v-223q69 39 150 39q131 0 224 -92.5t93 -223.5t-93 -224t-224 -93q-81 0 -150 39v-181h-167v959h167zM539 292q0 60 -45 105t-105 45q-61 0 -105.5 -45t-44.5 -105q0 -61 44.5 -105.5t105.5 -44.5q60 0 105 44.5t45 105.5z" />
    <glyph glyph-name="germandbls" unicode="&#xdf;" horiz-adv-x="769" 
d="M158 64l117 122q28 -26 49 -35t59 -9q57 0 104 45q44 41 44 82l-123 123l123 122q0 43 -45 85.5t-103 42.5q-60 0 -105 -45t-45 -105v-209h-166v209q0 131 92.5 223.5t223.5 92.5t224 -92.5t93 -223.5v-42l-58 -58l58 -59v-41q0 -131 -93 -224t-224 -93t-225 89z" />
    <glyph glyph-name="agrave" unicode="&#xe0;" horiz-adv-x="758" 
d="M519 569v98h167v-750h-167v97q-69 -39 -150 -39q-131 0 -223.5 93t-92.5 224t92.5 223.5t223.5 92.5q81 0 150 -39zM369 442q-60 0 -105 -45t-45 -105q0 -61 45 -105.5t105 -44.5q61 0 105.5 44.5t44.5 105.5q0 60 -44.5 105t-105.5 45zM442 739l-89 -89l-153 153l89 89z
" />
    <glyph glyph-name="aacute" unicode="&#xe1;" horiz-adv-x="758" 
d="M519 569v98h167v-750h-167v97q-69 -39 -150 -39q-131 0 -223.5 93t-92.5 224t92.5 223.5t223.5 92.5q81 0 150 -39zM369 442q-60 0 -105 -45t-45 -105q0 -61 45 -105.5t105 -44.5q61 0 105.5 44.5t44.5 105.5q0 60 -44.5 105t-105.5 45zM308 650l-89 89l153 153l89 -89z
" />
    <glyph glyph-name="acircumflex" unicode="&#xe2;" horiz-adv-x="758" 
d="M519 569v98h167v-750h-167v97q-69 -39 -150 -39q-131 0 -223.5 93t-92.5 224t92.5 223.5t223.5 92.5q81 0 150 -39zM369 442q-60 0 -105 -45t-45 -105q0 -61 45 -105.5t105 -44.5q61 0 105.5 44.5t44.5 105.5q0 60 -44.5 105t-105.5 45zM522 736l-83 -83l-97 97l-98 -97
l-83 83l181 181z" />
    <glyph glyph-name="atilde" unicode="&#xe3;" horiz-adv-x="758" 
d="M519 569v98h167v-750h-167v97q-69 -39 -150 -39q-131 0 -223.5 93t-92.5 224t92.5 223.5t223.5 92.5q81 0 150 -39zM369 442q-60 0 -105 -45t-45 -105q0 -61 45 -105.5t105 -44.5q61 0 105.5 44.5t44.5 105.5q0 60 -44.5 105t-105.5 45zM483 844l78 -77l-150 -150
l-111 111l-72 -72l-78 77l150 150l111 -111z" />
    <glyph glyph-name="adieresis" unicode="&#xe4;" horiz-adv-x="758" 
d="M519 569v98h167v-750h-167v97q-69 -39 -150 -39q-131 0 -223.5 93t-92.5 224t92.5 223.5t223.5 92.5q81 0 150 -39zM369 442q-60 0 -105 -45t-45 -105q0 -61 45 -105.5t105 -44.5q61 0 105.5 44.5t44.5 105.5q0 60 -44.5 105t-105.5 45zM372 739q0 31 26 57t58 26
q31 0 57 -26t26 -57t-26 -57t-57 -26q-32 0 -58 26t-26 57zM122 739q0 31 26 57t58 26q31 0 57 -26t26 -57t-26 -57t-57 -26q-32 0 -58 26t-26 57z" />
    <glyph glyph-name="aring" unicode="&#xe5;" horiz-adv-x="758" 
d="M472 733q0 -45 -29 -79.5t-74 -45.5q81 0 150 -39v98h167v-750h-167v97q-69 -39 -150 -39q-131 0 -223.5 93t-92.5 224q0 120 80.5 209.5t199.5 104.5q-48 4 -82 41t-34 86q0 52 37.5 90t89.5 38q53 0 90.5 -37.5t37.5 -90.5zM369 442q-60 0 -105 -45t-45 -105
q0 -61 45 -105.5t105 -44.5q61 0 105.5 44.5t44.5 105.5q0 60 -44.5 105t-105.5 45zM344 778q-19 0 -31.5 -13t-12.5 -32t12.5 -31.5t31.5 -12.5t32 12.5t13 31.5t-13 32t-32 13z" />
    <glyph glyph-name="ae" unicode="&#xe6;" horiz-adv-x="1167" 
d="M697 350h275q-17 41 -54 66.5t-82 25.5t-82.5 -25.5t-56.5 -66.5zM369 442q-60 0 -105 -45t-45 -105q0 -61 45 -105.5t105 -44.5q61 0 105.5 44.5t44.5 105.5q0 60 -44.5 105t-105.5 45zM836 -108q-80 0 -150 39v-14h-167v97q-69 -39 -150 -39q-131 0 -223.5 93
t-92.5 224t92.5 223.5t223.5 92.5q81 0 150 -39v98h167v-98q73 39 150 39q131 0 224 -92.5t93 -223.5v-109h-464q11 -53 52.5 -89t94.5 -36h25v-166h-25z" />
    <glyph glyph-name="ccedilla" unicode="&#xe7;" horiz-adv-x="619" 
d="M158 -83q67 40 67 91q-79 40 -125.5 116t-46.5 168q0 131 92.5 223.5t223.5 92.5q133 0 225 -89l-116 -122q-28 27 -48 35q-23 10 -61 10q-60 0 -105 -45t-45 -105q0 -61 45 -105.5t105 -44.5q38 0 61 10q20 8 48 34l116 -122q-92 -89 -225 -89l-19 3q-26 -117 -125 -172
z" />
    <glyph glyph-name="egrave" unicode="&#xe8;" horiz-adv-x="706" 
d="M686 183h-464q11 -53 52.5 -89t94.5 -36h25v-166h-25q-131 0 -223.5 92.5t-92.5 223.5v84q0 131 92.5 223.5t223.5 92.5t224 -92.5t93 -223.5v-109zM231 350h275q-18 41 -55 66.5t-82 25.5t-82 -25.5t-56 -66.5zM442 739l-89 -89l-153 153l89 89z" />
    <glyph glyph-name="eacute" unicode="&#xe9;" horiz-adv-x="706" 
d="M686 183h-464q11 -53 52.5 -89t94.5 -36h25v-166h-25q-131 0 -223.5 92.5t-92.5 223.5v84q0 131 92.5 223.5t223.5 92.5t224 -92.5t93 -223.5v-109zM231 350h275q-18 41 -55 66.5t-82 25.5t-82 -25.5t-56 -66.5zM317 650l-89 89l153 153l88 -89z" />
    <glyph glyph-name="ecircumflex" unicode="&#xea;" horiz-adv-x="706" 
d="M686 183h-464q11 -53 52.5 -89t94.5 -36h25v-166h-25q-131 0 -223.5 92.5t-92.5 223.5v84q0 131 92.5 223.5t223.5 92.5t224 -92.5t93 -223.5v-109zM231 350h275q-18 41 -55 66.5t-82 25.5t-82 -25.5t-56 -66.5zM536 736l-83 -83l-97 97l-98 -97l-83 83l181 181z" />
    <glyph glyph-name="edieresis" unicode="&#xeb;" horiz-adv-x="706" 
d="M686 183h-464q11 -53 52.5 -89t94.5 -36h25v-166h-25q-131 0 -223.5 92.5t-92.5 223.5v84q0 131 92.5 223.5t223.5 92.5t224 -92.5t93 -223.5v-109zM231 350h275q-18 41 -55 66.5t-82 25.5t-82 -25.5t-56 -66.5zM400 739q0 31 26 57t57 26q32 0 58 -26t26 -57t-26 -57
t-58 -26q-31 0 -57 26t-26 57zM150 739q0 31 26 57t57 26q32 0 58 -26t26 -57t-26 -57t-58 -26q-31 0 -57 26t-26 57z" />
    <glyph glyph-name="igrave" unicode="&#xec;" horiz-adv-x="311" 
d="M72 583h167v-583h-167v583zM233 739l-89 -89l-152 153l89 89zM72 583h167v-583h-167v583z" />
    <glyph glyph-name="iacute" unicode="&#xed;" horiz-adv-x="311" 
d="M72 583h167v-583h-167v583zM142 650l-89 89l153 153l88 -89z" />
    <glyph glyph-name="icircumflex" unicode="&#xee;" horiz-adv-x="311" 
d="M72 583h167v-583h-167v583zM342 736l-84 -83l-97 97l-97 -97l-83 83l180 181z" />
    <glyph glyph-name="idieresis" unicode="&#xef;" horiz-adv-x="311" 
d="M72 583h167v-583h-167v583zM192 739q0 32 26 57.5t57 25.5q32 0 57.5 -25.5t25.5 -57.5q0 -31 -25.5 -57t-57.5 -26q-31 0 -57 26t-26 57zM-58 739q0 32 25.5 57.5t57.5 25.5t57.5 -25.5t25.5 -57.5q0 -31 -25.5 -57t-57.5 -26t-57.5 26t-25.5 57z" />
    <glyph glyph-name="eth" unicode="&#xf0;" horiz-adv-x="739" 
d="M739 686l-86 -86q33 -63 33 -142v-166q0 -131 -93 -224t-224 -93t-223.5 93t-92.5 224q0 127 93 223q89 91 198 91v169h25q98 0 173 -53l80 81zM219 292q0 -61 45 -105.5t105 -44.5q61 0 105.5 44.5t44.5 105.5q0 60 -44.5 105t-105.5 45q-60 0 -105 -45t-45 -105z" />
    <glyph glyph-name="ntilde" unicode="&#xf1;" horiz-adv-x="728" 
d="M489 583h167v-772l-417 503v-314h-167v772l417 -503v314zM483 844l78 -77l-150 -150l-111 111l-72 -72l-78 77l150 150l111 -111z" />
    <glyph glyph-name="ograve" unicode="&#xf2;" horiz-adv-x="739" 
d="M53 292q0 131 92.5 223.5t223.5 92.5t224 -92.5t93 -223.5t-93 -224t-224 -93t-223.5 93t-92.5 224zM219 292q0 -61 45 -105.5t105 -44.5q61 0 105.5 44.5t44.5 105.5q0 60 -44.5 105t-105.5 45q-60 0 -105 -45t-45 -105zM469 739l-88 -89l-153 153l89 89z" />
    <glyph glyph-name="oacute" unicode="&#xf3;" horiz-adv-x="739" 
d="M53 292q0 131 92.5 223.5t223.5 92.5t224 -92.5t93 -223.5t-93 -224t-224 -93t-223.5 93t-92.5 224zM219 292q0 -61 45 -105.5t105 -44.5q61 0 105.5 44.5t44.5 105.5q0 60 -44.5 105t-105.5 45q-60 0 -105 -45t-45 -105zM350 650l-89 89l153 153l89 -89z" />
    <glyph glyph-name="ocircumflex" unicode="&#xf4;" horiz-adv-x="739" 
d="M53 292q0 131 92.5 223.5t223.5 92.5t224 -92.5t93 -223.5t-93 -224t-224 -93t-223.5 93t-92.5 224zM219 292q0 -61 45 -105.5t105 -44.5q61 0 105.5 44.5t44.5 105.5q0 60 -44.5 105t-105.5 45q-60 0 -105 -45t-45 -105zM550 736l-83 -83l-98 97l-97 -97l-83 83l180 181
z" />
    <glyph glyph-name="otilde" unicode="&#xf5;" horiz-adv-x="739" 
d="M53 292q0 131 92.5 223.5t223.5 92.5t224 -92.5t93 -223.5t-93 -224t-224 -93t-223.5 93t-92.5 224zM219 292q0 -61 45 -105.5t105 -44.5q61 0 105.5 44.5t44.5 105.5q0 60 -44.5 105t-105.5 45q-60 0 -105 -45t-45 -105zM483 844l78 -77l-150 -150l-111 111l-72 -72
l-78 77l150 150l111 -111z" />
    <glyph glyph-name="odieresis" unicode="&#xf6;" horiz-adv-x="739" 
d="M53 292q0 131 92.5 223.5t223.5 92.5t224 -92.5t93 -223.5t-93 -224t-224 -93t-223.5 93t-92.5 224zM219 292q0 -61 45 -105.5t105 -44.5q61 0 105.5 44.5t44.5 105.5q0 60 -44.5 105t-105.5 45q-60 0 -105 -45t-45 -105zM414 739q0 31 26 57t57 26q32 0 58 -26t26 -57
t-26 -57t-58 -26q-31 0 -57 26t-26 57zM164 739q0 31 26 57t57 26q32 0 58 -26t26 -57t-26 -57t-58 -26q-31 0 -57 26t-26 57z" />
    <glyph glyph-name="divide" unicode="&#xf7;" horiz-adv-x="0" 
 />
    <glyph glyph-name="oslash" unicode="&#xf8;" horiz-adv-x="739" 
d="M219 292v-25l175 175h-25q-60 0 -105 -45t-45 -105zM519 292q0 7 -2.5 19t-2.5 17l-181 -181q5 0 17 -2.5t19 -2.5q61 0 105.5 44.5t44.5 105.5zM803 617l-161 -164q44 -77 44 -161q0 -131 -93 -224t-224 -93q-82 0 -163 44l-120 -119l-117 117l123 122q-39 69 -39 153
q0 131 92.5 223.5t223.5 92.5q84 0 153 -39l164 164z" />
    <glyph glyph-name="ugrave" unicode="&#xf9;" 
d="M58 583h167v-291q0 -61 44.5 -105.5t105.5 -44.5t105.5 44.5t44.5 105.5v291h167v-291q0 -131 -93 -224t-224 -93t-224 93t-93 224v291zM469 739l-88 -89l-153 153l89 89z" />
    <glyph glyph-name="uacute" unicode="&#xfa;" 
d="M58 583h167v-291q0 -61 44.5 -105.5t105.5 -44.5t105.5 44.5t44.5 105.5v291h167v-291q0 -131 -93 -224t-224 -93t-224 93t-93 224v291zM364 650l-89 89l153 153l89 -89z" />
    <glyph glyph-name="ucircumflex" unicode="&#xfb;" 
d="M58 583h167v-291q0 -61 44.5 -105.5t105.5 -44.5t105.5 44.5t44.5 105.5v291h167v-291q0 -131 -93 -224t-224 -93t-224 93t-93 224v291zM550 736l-83 -83l-98 97l-97 -97l-83 83l180 181z" />
    <glyph glyph-name="udieresis" unicode="&#xfc;" 
d="M58 583h167v-291q0 -61 44.5 -105.5t105.5 -44.5t105.5 44.5t44.5 105.5v291h167v-291q0 -131 -93 -224t-224 -93t-224 93t-93 224v291zM414 739q0 31 26 57t57 26q32 0 58 -26t26 -57t-26 -57t-58 -26q-31 0 -57 26t-26 57zM164 739q0 31 26 57t57 26q32 0 58 -26
t26 -57t-26 -57t-58 -26q-31 0 -57 26t-26 57z" />
    <glyph glyph-name="yacute" unicode="&#xfd;" 
d="M142 642l233 -234l233 234l117 -117l-267 -267v-425h-166v425l-267 267zM369 647l-88 89l152 153l89 -89z" />
    <glyph glyph-name="thorn" unicode="&#xfe;" horiz-adv-x="758" 
d="M239 792v-223q69 39 150 39q131 0 224 -92.5t93 -223.5t-93 -224t-224 -93q-81 0 -150 39v-181h-167v959h167zM539 292q0 60 -45 105t-105 45q-61 0 -105.5 -45t-44.5 -105q0 -61 44.5 -105.5t105.5 -44.5q60 0 105 44.5t45 105.5z" />
    <glyph glyph-name="ydieresis" unicode="&#xff;" 
d="M142 642l233 -234l233 234l117 -117l-267 -267v-425h-166v425l-267 267zM414 739q0 31 26 57t57 26q32 0 58 -26t26 -57t-26 -57t-58 -26q-31 0 -57 26t-26 57zM164 739q0 31 26 57t57 26q32 0 58 -26t26 -57t-26 -57t-58 -26q-31 0 -57 26t-26 57z" />
    <glyph glyph-name="dotlessi" unicode="&#x131;" horiz-adv-x="311" 
d="M72 583h167v-583h-167v583z" />
    <glyph glyph-name="Lslash" unicode="&#x141;" horiz-adv-x="600" 
d="M425 481l-158 -92v-222h291v-167h-458v294l-42 -25l-83 145l125 72v306h167v-209l75 42z" />
    <glyph glyph-name="lslash" unicode="&#x142;" horiz-adv-x="517" 
d="M425 481l-158 -92v-222h208v-167h-375v294l-42 -25l-83 145l125 72v306h167v-209l75 42z" />
    <glyph glyph-name="OE" unicode="&#x152;" horiz-adv-x="1167" 
d="M697 350h275q-17 41 -54 66.5t-82 25.5t-82.5 -25.5t-56.5 -66.5zM219 292q0 -61 45 -105.5t105 -44.5q61 0 105.5 44.5t44.5 105.5q0 60 -44.5 105t-105.5 45q-60 0 -105 -45t-45 -105zM836 -108q-84 0 -155.5 41t-113.5 111q-83 -69 -198 -69q-131 0 -223.5 93
t-92.5 224t92.5 223.5t223.5 92.5q138 0 234 -102q94 102 233 102q131 0 224 -92.5t93 -223.5v-109h-464q11 -53 52.5 -89t94.5 -36h25v-166h-25z" />
    <glyph glyph-name="oe" unicode="&#x153;" horiz-adv-x="1167" 
d="M369 608q138 0 234 -102q97 102 233 102q131 0 224 -92.5t93 -223.5v-109h-464q11 -53 52.5 -89t94.5 -36h25v-166h-25q-84 0 -155.5 41t-113.5 111q-83 -69 -198 -69q-131 0 -223.5 93t-92.5 224t92.5 223.5t223.5 92.5zM697 350h275q-17 41 -54 66.5t-82 25.5
t-82.5 -25.5t-56.5 -66.5zM219 292q0 -61 45 -105.5t105 -44.5q61 0 105.5 44.5t44.5 105.5q0 60 -44.5 105t-105.5 45q-60 0 -105 -45t-45 -105z" />
    <glyph glyph-name="Scaron" unicode="&#x160;" horiz-adv-x="500" 
d="M475 692v-167h-25q-61 0 -105.5 -44.5t-44.5 -105.5v-167q0 -131 -93 -223.5t-224 -92.5h-25v166h25q61 0 105.5 45t44.5 105v167q0 131 93 224t224 93h25zM422 1011l89 -89l-211 -211l-211 211l89 89l122 -122z" />
    <glyph glyph-name="scaron" unicode="&#x161;" horiz-adv-x="500" 
d="M475 808v-166h-25q-61 0 -105.5 -45t-44.5 -105v-367q0 -131 -93 -224t-224 -93h-25v167h25q61 0 105.5 44.5t44.5 105.5v367q0 131 93 223.5t224 92.5h25zM433 1089l89 -89l-211 -211l-211 211l89 89l122 -122z" />
    <glyph glyph-name="Ydieresis" unicode="&#x178;" 
d="M142 642l233 -234l233 234l117 -117l-267 -267v-258h-166v258l-267 267zM414 739q0 31 26 57t57 26q32 0 58 -26t26 -57t-26 -57t-58 -26q-31 0 -57 26t-26 57zM164 739q0 31 26 57t57 26q32 0 58 -26t26 -57t-26 -57t-58 -26q-31 0 -57 26t-26 57z" />
    <glyph glyph-name="Zcaron" unicode="&#x17d;" 
d="M117 433v150h647l-433 -433h302v-150h-664l434 433h-286zM494 919l89 -88l-211 -212l-211 212l89 88l122 -122z" />
    <glyph glyph-name="zcaron" unicode="&#x17e;" horiz-adv-x="708" 
d="M50 433v150h647l-375 -433h336v-150h-664l375 433h-319zM500 919l89 -88l-211 -212l-211 212l89 88l122 -122z" />
    <glyph glyph-name="florin" unicode="&#x192;" horiz-adv-x="500" 
d="M42 417h83v83q0 130 94 219t223 89h25v-166h-25q-60 0 -105 -42.5t-45 -99.5v-83h175v-167h-175v-125q0 -131 -93 -224t-224 -93h-25v167h25q61 0 105.5 44.5t44.5 105.5v125h-83v167z" />
    <glyph glyph-name="circumflex" unicode="&#x2c6;" horiz-adv-x="667" 
d="M508 611l-83 -83l-97 97l-97 -97l-84 83l181 181z" />
    <glyph glyph-name="caron" unicode="&#x2c7;" horiz-adv-x="667" 
d="M450 819l89 -88l-211 -212l-211 212l89 88l122 -122z" />
    <glyph glyph-name="breve" unicode="&#x2d8;" horiz-adv-x="458" 
d="M6 744l111 62q37 -67 111 -67t111 67l111 -62q-31 -62 -91 -97.5t-131 -35.5q-72 0 -131.5 35.5t-90.5 97.5z" />
    <glyph glyph-name="dotaccent" unicode="&#x2d9;" horiz-adv-x="292" 
d="M53 733q0 32 26 58t57 26t57 -26t26 -58q0 -31 -26 -57t-57 -26t-57 26t-26 57z" />
    <glyph glyph-name="ring" unicode="&#x2da;" horiz-adv-x="292" 
d="M136 806q52 0 90 -38t38 -90t-37.5 -90t-90.5 -38q-52 0 -90 38t-38 90t38 90t90 38zM136 722q-19 0 -31.5 -12.5t-12.5 -31.5t12.5 -32t31.5 -13t32 13t13 32t-13 31.5t-32 12.5z" />
    <glyph glyph-name="ogonek" unicode="&#x2db;" horiz-adv-x="458" 
d="M214 -103l-22 -128q-68 15 -110.5 68t-42.5 121t42.5 121.5t110.5 67.5l22 -128q-19 0 -33 -18t-14 -43t14 -43t33 -18z" />
    <glyph glyph-name="tilde" unicode="&#x2dc;" horiz-adv-x="667" 
d="M497 747l78 -78l-150 -150l-111 112l-72 -73l-78 78l150 150l111 -111z" />
    <glyph glyph-name="hungarumlaut" unicode="&#x2dd;" horiz-adv-x="583" 
d="M164 564l-89 89l167 166l89 -88zM414 564l-89 89l167 166l89 -88z" />
    <glyph glyph-name="Delta" unicode="&#x394;" horiz-adv-x="0" 
 />
    <glyph glyph-name="Delta" unicode="&#x2206;" horiz-adv-x="0" 
 />
    <glyph glyph-name="Omega" unicode="&#x3a9;" horiz-adv-x="0" 
 />
    <glyph glyph-name="Omega" unicode="&#x2126;" horiz-adv-x="0" 
 />
    <glyph glyph-name="pi" unicode="&#x3c0;" horiz-adv-x="0" 
 />
    <glyph glyph-name="endash" unicode="&#x2013;" horiz-adv-x="667" 
d="M0 292v166h667v-166h-667z" />
    <glyph glyph-name="emdash" unicode="&#x2014;" horiz-adv-x="1000" 
d="M0 292v166h1000v-166h-1000z" />
    <glyph glyph-name="quoteleft" unicode="&#x2018;" horiz-adv-x="375" 
d="M217 850l77 -150q-55 -32 -55 -92q0 -59 55 -91l-77 -150q-66 33 -105.5 98.5t-39.5 142.5q0 78 39 143.5t106 98.5z" />
    <glyph glyph-name="quoteright" unicode="&#x2019;" horiz-adv-x="375" 
d="M86 700l78 150q66 -33 105 -98.5t39 -143.5q0 -77 -39 -142.5t-105 -98.5l-78 150q56 32 56 91q0 60 -56 92z" />
    <glyph glyph-name="quotesinglbase" unicode="&#x201a;" 
d="M58 292q0 131 93 223.5t224 92.5t224 -92.5t93 -223.5t-93 -224t-224 -93t-224 93t-93 224zM225 292q0 -61 44.5 -105.5t105.5 -44.5t105.5 44.5t44.5 105.5q0 60 -44.5 105t-105.5 45t-105.5 -45t-44.5 -105z" />
    <glyph glyph-name="quotedblleft" unicode="&#x201c;" horiz-adv-x="667" 
d="M506 850l77 -150q-55 -31 -55 -92q0 -60 55 -91l-77 -150q-66 33 -105.5 98.5t-39.5 142.5q0 78 39 143.5t106 98.5zM214 850l78 -150q-56 -32 -56 -92q0 -59 56 -91l-78 -150q-66 33 -105.5 98.5t-39.5 142.5q0 78 39 143.5t106 98.5z" />
    <glyph glyph-name="quotedblright" unicode="&#x201d;" horiz-adv-x="667" 
d="M86 700l78 150q66 -33 105 -98.5t39 -143.5q0 -77 -39 -142.5t-105 -98.5l-78 150q56 32 56 91q0 60 -56 92zM378 700l78 150q66 -33 105 -99t39 -143t-39 -142.5t-105 -98.5l-78 150q55 31 55 91q0 61 -55 92z" />
    <glyph glyph-name="quotedblbase" unicode="&#x201e;" horiz-adv-x="667" 
d="M106 97l72 139q65 -33 103 -97t38 -139t-38 -139t-103 -97l-72 139q58 31 58 97t-58 97zM397 97l72 139q65 -33 103.5 -97t38.5 -139t-38.5 -139t-103.5 -97l-72 139q59 31 59 97t-59 97z" />
    <glyph glyph-name="dagger" unicode="&#x2020;" horiz-adv-x="583" 
d="M42 542h166v250h167v-250h167v-167h-167v-458h-167v458h-166v167z" />
    <glyph glyph-name="daggerdbl" unicode="&#x2021;" horiz-adv-x="708" 
d="M83 417v166h564l-425 -780l-144 78l291 536h-286z" />
    <glyph glyph-name="bullet" unicode="&#x2022;" horiz-adv-x="667" 
d="M333 625q107 0 178.5 -71.5t71.5 -178.5q0 -106 -71.5 -178t-178.5 -72q-106 0 -178 72t-72 178t72 178t178 72z" />
    <glyph glyph-name="ellipsis" unicode="&#x2026;" horiz-adv-x="1333" 
d="M175 158q42 0 71 -29t29 -71q0 -41 -29 -70.5t-71 -29.5t-71 29.5t-29 70.5q0 42 29 71t71 29zM550 158q42 0 71 -29t29 -71q0 -41 -29 -70.5t-71 -29.5t-71 29.5t-29 70.5q0 42 29 71t71 29zM925 158q42 0 71 -29t29 -71q0 -41 -29 -70.5t-71 -29.5t-71 29.5t-29 70.5
q0 42 29 71t71 29z" />
    <glyph glyph-name="perthousand" unicode="&#x2030;" horiz-adv-x="1144" 
d="M700 733l117 -116l-717 -717l-117 117zM250 725q61 0 101.5 -40.5t40.5 -101.5q0 -60 -40.5 -100.5t-101.5 -40.5t-101.5 40.5t-40.5 100.5q0 61 40.5 101.5t101.5 40.5zM583 217q61 0 101.5 -40.5t40.5 -101.5t-40.5 -101.5t-101.5 -40.5q-60 0 -100.5 40.5t-40.5 101.5
t40.5 101.5t100.5 40.5zM936 217q61 0 101.5 -40.5t40.5 -101.5t-40.5 -101.5t-101.5 -40.5q-60 0 -101 40.5t-41 101.5t41 101.5t101 40.5z" />
    <glyph glyph-name="guilsinglleft" unicode="&#x2039;" horiz-adv-x="611" 
d="M83 417v166h528l-133 -233q89 -91 89 -225q0 -131 -93 -224t-224 -93t-225 89l117 122q28 -26 49 -35t59 -9q61 0 105.5 44.5t44.5 105.5q0 49 -22 83h-172l119 209h-242z" />
    <glyph glyph-name="guilsinglright" unicode="&#x203a;" horiz-adv-x="639" 
d="M367 622l144 -78l-203 -377h289v-334h-166v167h-395z" />
    <glyph glyph-name="fraction" unicode="&#x2044;" horiz-adv-x="417" 
d="M125 583h167v-583h-167v583z" />
    <glyph glyph-name="trademark" unicode="&#x2122;" horiz-adv-x="878" 
d="M94 697v106h106v-106h86v-105h-86v-50q0 -27 18.5 -45.5t45.5 -18.5h22v-109h-22q-71 0 -120.5 50.5t-49.5 122.5v50h-41v105h41zM431 436l-98 45l159 361l105 -239l103 239l158 -361l-97 -45l-61 139l-103 -239l-105 239z" />
    <glyph glyph-name="partialdiff" unicode="&#x2202;" horiz-adv-x="739" 
d="M739 686l-86 -86q33 -63 33 -142v-166q0 -131 -93 -224t-224 -93t-223.5 93t-92.5 224q0 127 93 223q89 91 198 91v169h25q98 0 173 -53l80 81zM219 292q0 -61 45 -105.5t105 -44.5q61 0 105.5 44.5t44.5 105.5q0 60 -44.5 105t-105.5 45q-60 0 -105 -45t-45 -105z" />
    <glyph glyph-name="product" unicode="&#x220f;" horiz-adv-x="0" 
 />
    <glyph glyph-name="summation" unicode="&#x2211;" horiz-adv-x="0" 
 />
    <glyph glyph-name="radical" unicode="&#x221a;" horiz-adv-x="0" 
 />
    <glyph glyph-name="infinity" unicode="&#x221e;" horiz-adv-x="667" 
d="M542 792v-167h-209l-8 -19q95 0 183 -84q100 -96 100 -230q0 -131 -92.5 -224t-223.5 -93q-133 0 -225 89l116 122q28 -26 49.5 -35t59.5 -9q60 0 105 44.5t45 105.5q0 60 -45 105t-105 45h-200l125 350h325z" />
    <glyph glyph-name="integral" unicode="&#x222b;" horiz-adv-x="0" 
 />
    <glyph glyph-name="approxequal" unicode="&#x2248;" horiz-adv-x="0" 
 />
    <glyph glyph-name="approxequal" unicode="&#x22f2;" horiz-adv-x="0" 
 />
    <glyph glyph-name="notequal" unicode="&#x2260;" horiz-adv-x="0" 
 />
    <glyph glyph-name="lessequal" unicode="&#x2264;" horiz-adv-x="0" 
 />
    <glyph glyph-name="greaterequal" unicode="&#x2265;" horiz-adv-x="0" 
 />
    <glyph glyph-name="lozenge" unicode="&#x25ca;" horiz-adv-x="0" 
 />
    <glyph glyph-name="apple" unicode="&#xf000;" horiz-adv-x="0" 
 />
    <glyph glyph-name="fi" unicode="&#xf001;" horiz-adv-x="667" 
d="M42 417h83v41q0 130 94 219.5t223 89.5h52v-167h-52q-60 0 -105 -42.5t-45 -99.5v-41h286v-417h-167v250h-119v-83q0 -131 -93 -224t-224 -93h-25v167h25q61 0 105.5 44.5t44.5 105.5v83h-83v167z" />
    <glyph glyph-name="fl" unicode="&#xf002;" horiz-adv-x="736" 
d="M42 417h83v41q0 130 94 219.5t223 89.5h211v-767h-167v600h-44q-60 0 -105 -42.5t-45 -99.5v-41h111v-167h-111v-83q0 -131 -93 -224t-224 -93h-25v167h25q61 0 105.5 44.5t44.5 105.5v83h-83v167z" />
    <glyph glyph-name=".null" horiz-adv-x="0" 
 />
    <glyph glyph-name="HT" horiz-adv-x="0" 
 />
    <glyph glyph-name="LF" horiz-adv-x="0" 
 />
    <glyph glyph-name="nonmarkingreturn" horiz-adv-x="0" 
 />
    <glyph glyph-name="DLE" horiz-adv-x="0" 
 />
    <glyph glyph-name="DC1" horiz-adv-x="0" 
 />
    <glyph glyph-name="DC2" horiz-adv-x="0" 
 />
    <glyph glyph-name="DC3" horiz-adv-x="0" 
 />
    <glyph glyph-name="DC4" horiz-adv-x="0" 
 />
    <glyph glyph-name="RS" horiz-adv-x="0" 
 />
    <glyph glyph-name="US" horiz-adv-x="0" 
 />
    <glyph glyph-name="DEL" horiz-adv-x="0" 
 />
    <glyph glyph-name="glyph259" horiz-adv-x="280" 
 />
  </font>
</defs>
</svg>
